<svg width="45" height="45" viewBox="0 0 45 45" fill="none" xmlns="http://www.w3.org/2000/svg">
<rect width="45" height="45" rx="4" fill="#ACBDCA"/>
<g clip-path="url(#clip0_413_297)">
<path d="M25.6716 17.7752C26.0091 17.5853 26.4591 17.2338 26.4099 16.39C26.3536 15.3705 24.7083 13.5424 24.0403 13.0361L24.1388 12.4806H24.8981C25.1161 12.4877 25.313 12.3681 25.4185 12.1853C25.9036 11.3627 26.22 10.4486 26.3536 9.50641C26.431 9.10563 26.3677 8.54313 26.1145 8.05094L26.0935 8.00876C25.8403 7.54469 25.4606 7.19313 25.0106 6.98219C24.3778 6.67282 23.6185 6.65173 22.9364 6.98219C22.9013 6.98219 22.8731 7.01032 22.852 7.01735C22.4091 7.24235 22.0927 7.55876 21.8888 7.91735C21.6216 7.81188 21.3052 7.81891 21.0309 7.95954C20.5177 8.21969 20.3208 8.84548 20.5809 9.34469C20.7989 9.75954 21.2489 9.97048 21.6849 9.8861C21.7059 9.94938 21.727 10.0127 21.7481 10.0759C21.8536 10.3431 21.938 10.6806 21.945 11.1095C21.945 11.5103 21.8395 12.0588 21.6356 12.6072C21.5864 12.7127 21.5513 12.8252 21.5091 12.9306L18.5138 14.5338L16.9669 15.3705C16.3903 15.6939 15.8489 16.158 15.4411 16.5588C14.0349 17.9017 12.9028 19.4345 11.8903 21.0166C11.6934 21.333 11.6231 21.7127 11.7075 22.0713C11.7849 22.4369 12.0099 22.7463 12.3263 22.9502L12.3474 22.9642C13.613 21.0869 14.9841 19.2939 16.6434 17.8806C17.0794 17.508 17.431 17.2408 17.8739 17.0158L19.4067 16.2986L21.0028 15.5533C21.0028 15.8627 21.0239 16.1791 21.0731 16.4884L21.502 19.3291C21.502 20.1447 21.3825 20.9463 21.0661 21.6142C19.7794 22.0361 18.8442 23.2384 18.8442 24.6658C18.8442 25.0806 18.9286 25.4744 19.0692 25.833L16.9669 31.0713L9.22548 33.7994C8.21298 34.158 7.65048 35.2478 7.95986 36.2814L19.2872 33.8205L22.9505 27.7455C24.7364 24.7783 25.6997 21.3259 25.6997 18.6119C25.6997 18.3236 25.6856 18.0494 25.6716 17.7752Z" fill="white"/>
<path d="M25.4602 24.595C24.975 25.952 24.3563 27.2809 23.6391 28.4762L23.625 28.4973L27.9914 30.902L29.7633 38.9106C29.9953 39.9583 31.0078 40.6473 32.0695 40.4715L31.0008 28.9333L25.4602 24.595Z" fill="white"/>
<path d="M33.1813 10.2445C33.0547 9.89297 32.7945 9.61172 32.457 9.45703H32.4359C31.5359 11.3133 30.4953 13.05 29.0469 14.4141C28.8359 14.618 28.7586 14.6883 28.632 14.7516C28.5055 14.8078 28.3719 14.843 28.2313 14.843C28.0766 14.843 27.9992 14.8289 27.8023 14.7445L27.0641 14.4633L26.4453 14.2172C26.9023 14.8992 27.2539 15.6375 27.2961 16.3055C27.2961 16.3477 27.2961 16.3969 27.2961 16.4391C27.5844 16.5375 27.9781 16.6008 28.3156 16.5727C28.7023 16.5516 29.0891 16.432 29.4266 16.2492C29.7711 16.0664 30.0734 15.757 30.2281 15.5883C30.9945 14.7867 31.6766 13.8867 32.2391 12.9375C32.5555 12.4031 32.8437 11.8617 33.1109 11.3133C33.2727 10.9758 33.2938 10.5961 33.1672 10.2445H33.1813Z" fill="white"/>
</g>
<defs>
<clipPath id="clip0_413_297">
<rect width="25.8961" height="33.75" fill="white" transform="translate(7.875 6.75)"/>
</clipPath>
</defs>
</svg>
