<svg width="45" height="45" viewBox="0 0 45 45" fill="none" xmlns="http://www.w3.org/2000/svg">
<rect opacity="0.3" width="45" height="45" rx="4" fill="#00325B"/>
<g clip-path="url(#clip0_291_2457)">
<path d="M14.6301 12.3755H14.1428C13.1739 12.3755 12.3812 13.1682 12.3812 14.137V16.3125C12.161 16.2127 11.9173 16.1569 11.6619 16.1569H11.2127C10.2439 16.1569 9.45117 16.9496 9.45117 17.9185V26.9523C9.45117 27.9211 10.2439 28.7138 11.2127 28.7138H11.6619C11.9173 28.7138 12.161 28.6581 12.3812 28.5582V30.7337C12.3812 31.7026 13.1739 32.4953 14.1428 32.4953H14.6301C15.599 32.4953 16.3917 31.7026 16.3917 30.7337V14.137C16.3917 13.1682 15.599 12.3755 14.6301 12.3755Z" fill="#F5F8FA"/>
<path d="M33.9719 16.1569H33.5227C33.2673 16.1569 33.0236 16.2127 32.8034 16.3125V14.137C32.8034 13.1682 32.0107 12.3755 31.0419 12.3755H30.5545C29.5857 12.3755 28.793 13.1682 28.793 14.137V30.7308C28.793 31.6997 29.5857 32.4924 30.5545 32.4924H31.0419C32.0107 32.4924 32.8034 31.6997 32.8034 30.7308V28.5553C33.0236 28.6551 33.2673 28.7109 33.5227 28.7109H33.9719C34.9408 28.7109 35.7335 27.9182 35.7335 26.9494V17.9156C35.7335 16.9467 34.9408 16.154 33.9719 16.154V16.1569Z" fill="#F5F8FA"/>
<path d="M27.4951 20.8572H17.6921C17.5247 20.8572 17.3867 20.9893 17.3867 21.1508V23.7168C17.3867 23.8782 17.5218 24.0103 17.6921 24.0103H27.4951C27.6624 24.0103 27.8004 23.8782 27.8004 23.7168V21.1508C27.8004 20.9893 27.6653 20.8572 27.4951 20.8572Z" fill="#F5F8FA"/>
<path d="M7.98602 20.8572H7.37535C7.03185 20.8572 6.75 21.1214 6.75 21.4444V23.4232C6.75 23.7461 7.03185 24.0103 7.37535 24.0103H7.98602C8.14749 24.0103 8.27961 23.8782 8.27961 23.7168V21.1508C8.27961 20.9893 8.14749 20.8572 7.98602 20.8572Z" fill="#F5F8FA"/>
<path d="M38.5318 21.4444C38.5318 21.1214 38.2499 20.8572 37.9035 20.8572H37.2018C37.0403 20.8572 36.9082 20.9893 36.9082 21.1508V23.7168C36.9082 23.8782 37.0403 24.0103 37.2018 24.0103H37.9035C38.247 24.0103 38.5288 23.7461 38.5288 23.4232V21.4444H38.5318Z" fill="#F5F8FA"/>
</g>
<defs>
<clipPath id="clip0_291_2457">
<rect width="31.7812" height="20.1169" fill="white" transform="translate(6.75 12.375)"/>
</clipPath>
</defs>
</svg>
