<svg width="45" height="45" viewBox="0 0 45 45" fill="none" xmlns="http://www.w3.org/2000/svg">
<rect opacity="0.3" width="45" height="45" rx="4" fill="#00325B"/>
<g clip-path="url(#clip0_291_2452)">
<path d="M18.5859 22.1296L20.6425 18.4046C20.7662 18.1828 21.0095 18.0548 21.2612 18.0761C21.5129 18.1017 21.7306 18.2724 21.8074 18.5113L24.12 25.5345L25.9376 22.2064C26.0486 22.0016 26.2662 21.8736 26.5009 21.8736H34.0276C34.6548 21.8736 35.2265 21.5023 35.4697 20.9263C36.5279 18.4388 36.0031 15.4392 33.891 13.4636C31.2498 10.9889 27.0684 11.2022 24.5083 13.7581L24.4613 13.805C23.6165 14.6498 22.2639 14.6498 21.4319 13.8178L21.3679 13.7538C18.8334 11.2193 14.7031 10.9889 12.0534 13.4082C9.8005 15.4648 9.30555 18.6734 10.56 21.2421C10.8245 21.784 11.3707 22.1296 11.9766 22.1296H18.5859Z" fill="#F5F8FA"/>
<path d="M27.1477 23.2845L24.6464 27.868C24.5279 28.0867 24.2955 28.2234 24.0449 28.2234C24.0222 28.2234 24.0039 28.2234 23.9812 28.2234C23.7078 28.2006 23.48 28.0138 23.3934 27.7587L20.9194 20.25L19.2837 23.207C19.1652 23.4257 18.9328 23.5578 18.6868 23.5578H13.2877C12.6179 23.5578 12.2853 24.3688 12.7546 24.8381L12.8913 24.9748L21.4297 33.5132C22.2635 34.347 23.6121 34.347 24.4413 33.5132L32.9797 24.9748L33.3852 24.5693C33.8591 24.0955 33.5219 23.289 32.8522 23.289H27.1432L27.1477 23.2845Z" fill="#F5F8FA"/>
</g>
<defs>
<clipPath id="clip0_291_2452">
<rect width="27.8888" height="23.0637" fill="white" transform="translate(9 11.25)"/>
</clipPath>
</defs>
</svg>
