<svg width="45" height="45" viewBox="0 0 45 45" fill="none" xmlns="http://www.w3.org/2000/svg">
<rect opacity="0.3" width="45" height="45" rx="4" fill="#00325B"/>
<g clip-path="url(#clip0_413_19360)">
<path d="M11 10V12.0557H12.0272V34.67H17.6814V30.5585H20.7644V34.67H26.4186V12.0557H27.4458V10H11ZM18.1944 28.5028H16.1387V26.4471H18.1944V28.5028ZM18.1944 24.3914H16.1387V22.3356H18.1944V24.3914ZM18.1944 20.2799H16.1387V18.2242H18.1944V20.2799ZM18.1944 16.1685H16.1387V14.1127H18.1944V16.1685ZM22.3071 28.5041H20.2514V26.4484H22.3071V28.5041ZM22.3071 24.3926H20.2514V22.3369H22.3071V24.3926ZM22.3071 20.2812H20.2514V18.2255H22.3071V20.2812ZM22.3071 16.1697H20.2514V14.114H22.3071V16.1697Z" fill="white"/>
<path d="M32.0708 20.2798C30.0853 20.2798 28.4736 21.8914 28.4736 23.877V26.9612C28.4736 28.5895 29.5608 29.9472 31.0436 30.3925V34.6711H33.0993V30.3925C34.5821 29.9472 35.6693 28.5895 35.6693 26.9612V23.877C35.6693 21.8914 34.0577 20.2798 32.0708 20.2798Z" fill="white"/>
</g>
<defs>
<clipPath id="clip0_413_19360">
<rect width="24.67" height="24.67" fill="white" transform="translate(11 10)"/>
</clipPath>
</defs>
</svg>
