<svg width="838" height="219" viewBox="0 0 838 219" fill="none" xmlns="http://www.w3.org/2000/svg">
<path d="M125.189 218.928V163.655C125.189 153.337 122.807 145.904 118.045 141.503C113.283 137.101 104.479 134.864 91.5631 134.864H43.7227V218.928H5.69572C2.59294 218.928 0.0673828 216.402 0.0673828 213.299V9.95958C0.0673828 6.85681 2.59294 4.3313 5.69572 4.3313H109.025C118.911 4.3313 127.931 5.91876 136.012 9.02154C144.094 12.1243 151.021 16.4538 156.866 21.9377C162.71 27.4217 167.112 33.988 170.287 41.6367C173.39 49.2854 174.977 57.5114 174.977 66.3868C174.977 78.0041 172.235 88.3227 166.751 97.2702C161.267 106.218 153.33 112.495 143.011 116.175C152.464 119.206 159.247 123.824 163.216 130.102C167.184 136.38 169.205 145.76 169.205 158.243V213.372C169.205 216.474 166.679 219 163.576 219H125.261L125.189 218.928ZM43.7227 44.3066V98.7134H100.006C112.056 98.7134 120.57 96.0435 125.549 90.6317C130.528 85.2199 132.982 78.4371 132.982 70.2833C132.982 62.1295 130.528 54.9859 125.694 49.5741C120.859 44.1623 112.85 41.4924 101.593 41.4924H46.5368C44.9494 41.4924 43.7227 42.7913 43.7227 44.3066Z" fill="white"/>
<path d="M741.912 218.926C710.884 218.926 687.144 209.69 670.548 191.145C653.952 172.601 645.654 145.975 645.654 111.195C645.654 93.877 647.746 78.3631 652.004 64.581C656.261 50.7989 662.467 39.1094 670.692 29.5124C678.918 19.9155 689.02 12.6276 700.854 7.57654C712.76 2.52552 726.398 0 741.912 0C757.426 0 770.847 2.52552 782.825 7.57654C794.803 12.6276 804.833 19.9876 812.843 29.6567C820.924 39.3259 827.058 51.0875 831.243 65.0139C835.5 78.8682 837.593 94.5985 837.593 112.133C837.593 147.562 829.367 174.188 812.987 192.083C796.607 209.978 772.868 218.926 741.912 218.926ZM741.912 182.198C749.344 182.198 756.416 180.827 763.054 178.013C769.693 175.199 775.465 171.013 780.444 165.385C785.351 159.757 789.247 152.469 792.061 143.593C794.876 134.718 796.319 124.255 796.319 112.133C796.319 87.8157 791.701 69.4155 782.464 56.8601C773.228 44.3047 759.735 38.027 741.984 38.027C724.233 38.027 710.668 44.3047 701.215 56.8601C691.762 69.4155 687 87.8157 687 112.133C687 136.45 691.762 154.201 701.359 165.385C710.956 176.642 724.45 182.198 741.984 182.198H741.912Z" fill="white"/>
<path d="M358.768 95.1746H224.194V127.79H358.768V95.1746Z" fill="white"/>
<path d="M609.992 9.95958V213.299C609.992 216.402 607.466 218.928 604.363 218.928H567.996V81.5398C567.852 80.8904 567.779 80.241 567.346 80.1689C566.697 80.0967 565.975 80.7461 565.831 81.7563L528.598 218.928H483.355L446.122 81.7563C445.977 80.7461 445.256 80.0967 444.607 80.1689C443.957 80.241 443.596 80.8904 443.668 82.1171V218.928H407.59C404.487 218.928 401.961 216.402 401.961 213.299V9.95958C401.961 6.85681 404.487 4.3313 407.59 4.3313H467.913L505.002 154.852C505.435 156.656 507.961 156.656 508.394 154.852L545.483 4.3313H604.508C607.61 4.3313 610.136 6.85681 610.136 9.95958H609.992Z" fill="white"/>
<path d="M244.035 46.4713H362.879V9.88743C362.879 6.85682 360.353 4.3313 357.25 4.3313H236.82C213.657 4.3313 194.896 22.7315 194.896 45.4611V177.87C194.896 200.6 213.657 219 236.82 219H357.25C360.353 219 362.879 216.547 362.879 213.444V176.86H244.035C239.922 176.86 236.603 173.613 236.603 169.572V53.8314C236.603 49.7905 239.922 46.5434 244.035 46.5434V46.4713Z" fill="white"/>
</svg>
