<svg width="53" height="53" viewBox="0 0 53 53" fill="none" xmlns="http://www.w3.org/2000/svg">
<g clip-path="url(#clip0_291_2048)">
<g clip-path="url(#clip1_291_2048)">
<path fill-rule="evenodd" clip-rule="evenodd" d="M20.3607 19.4841H33.5778V33.57H19.4886V19.4841H20.3669H20.3607ZM16.2168 53.0541H17.9671V45.8751H25.6488V53.0541H27.3991V45.8751H35.0808V53.0541H36.8311V45.8751H45.8734V36.8349H53.0541V35.085H45.8734V27.4051H53.0541V25.6552H45.8734V17.9753H53.0541V16.2254H45.8734V7.18518H36.8311V0H35.0808V7.179H27.3991V0H25.6488V7.179H17.9671V0H16.2168V7.179H7.17449V16.2192H0V17.9691H7.18067V25.649H0V27.3989H7.18067V35.0788H0V36.8287H7.18067V45.8689H16.223V53.0479L16.2168 53.0541ZM44.1293 8.92892H8.931V44.119H44.1293V8.92892ZM31.8213 21.234H21.239V31.8139H31.8213V21.234Z" fill="#00325B"/>
</g>
</g>
<defs>
<clipPath id="clip0_291_2048">
<rect width="53" height="53" fill="white"/>
</clipPath>
<clipPath id="clip1_291_2048">
<rect width="53.0541" height="53.0541" fill="white"/>
</clipPath>
</defs>
</svg>
