<svg width="53" height="53" viewBox="0 0 53 53" fill="none" xmlns="http://www.w3.org/2000/svg">
<g clip-path="url(#clip0_291_404)">
<g clip-path="url(#clip1_291_404)">
<path fill-rule="evenodd" clip-rule="evenodd" d="M8.31213 45.4633C7.90187 43.2903 9.39965 41.2237 11.6593 40.8292C12.4148 40.6977 13.2092 40.7666 13.9451 41.0547L19.9493 32.7509C19.7604 32.5943 19.5781 32.4378 19.4088 32.2687C17.8003 30.7219 16.7779 28.6115 16.6802 26.2694L10.4937 25.9125C10.2332 26.9583 9.64711 27.8725 8.84612 28.5551C6.64503 30.4276 3.28479 30.2334 1.33767 28.1168C-0.609452 26.0001 -0.407577 22.7688 1.79351 20.8964C3.9946 19.0239 7.35485 19.2181 9.30197 21.3347C10.0118 22.105 10.4807 23.0819 10.6044 24.1465L16.7909 24.5034C17.11 22.5934 18.0477 20.8901 19.4088 19.5813C19.7474 19.2556 20.1186 18.9488 20.5093 18.6795L15.1498 9.91231C14.1014 10.288 12.9878 10.3319 11.9524 10.0751C10.6369 9.74323 9.44523 8.93539 8.70285 7.71425C7.96047 6.49936 7.79767 5.10287 8.1363 3.83789C8.48144 2.57291 9.3215 1.42691 10.5914 0.713008C11.8482 -0.00715512 13.3004 -0.163712 14.6158 0.161927C15.9313 0.493828 17.123 1.30166 17.8654 2.52281C18.6078 3.73769 18.7706 5.13418 18.4319 6.39917C18.1649 7.39487 17.5854 8.31542 16.7323 9.01054L22.0917 17.7777C23.2835 17.2454 24.6054 16.9511 26.0055 16.9511C26.5395 16.9511 27.0605 16.995 27.5619 17.0764L29.4569 10.4133C28.7536 10.0563 28.1871 9.51152 27.8029 8.86651C26.6632 6.95025 27.3665 4.51422 29.3527 3.42458C31.3454 2.32868 33.8786 3.00501 35.0117 4.915C36.1449 6.825 35.4481 9.26729 33.4619 10.3569C32.7976 10.7201 32.0227 10.9143 31.2282 10.8767L29.3332 17.5398C30.5705 17.9969 31.6776 18.692 32.5958 19.575C32.9539 19.9194 33.2795 20.2889 33.5726 20.6834L42.7286 15.5922C42.3444 14.584 42.3053 13.5069 42.5853 12.5112C43.3472 9.77454 46.2647 8.15887 49.0974 8.88529C51.9432 9.61798 53.6233 12.4235 52.8679 15.1476C52.5163 16.4126 51.6632 17.546 50.3933 18.2537C48.1532 19.4999 45.3074 19.0177 43.6533 17.1139L34.5038 22.2052C35.0378 23.3324 35.3374 24.5911 35.3374 25.9125C35.3374 26.2068 35.3243 26.5011 35.2918 26.7892L42.7416 28.217C43.0672 27.5219 43.5882 26.9395 44.2264 26.5324C46.1344 25.305 48.7067 25.7935 49.9831 27.6346C51.2594 29.4694 50.7515 31.943 48.8369 33.1704C46.9289 34.3979 44.3566 33.9031 43.0802 32.0683C42.6504 31.4546 42.403 30.7219 42.3769 29.9579L34.9271 28.5301C34.4778 29.9579 33.6637 31.2291 32.5958 32.2561C32.0162 32.8135 31.3519 33.302 30.6356 33.7027L33.9828 40.8856C35.3569 40.5098 36.7765 40.585 38.0464 41.0547C41.3676 42.2758 43.0412 45.8641 41.7713 49.0579C41.1852 50.5358 40.0065 51.807 38.3785 52.5084C36.7505 53.2098 34.9857 53.2098 33.4488 52.6462C30.1212 51.425 28.4541 47.8367 29.7239 44.643C30.2058 43.4218 31.0915 42.3447 32.3027 41.612L28.9555 34.4292C28.0243 34.7298 27.0344 34.8863 25.999 34.8863C24.3514 34.8863 22.8016 34.473 21.4601 33.7528L15.4624 42.0566C15.9964 42.6202 16.3416 43.3153 16.4783 44.0418C16.8821 46.2148 15.3843 48.2876 13.1311 48.6759C10.8714 49.0641 8.72239 47.6301 8.31213 45.4571V45.4633ZM12.4082 8.353C13.2678 8.56592 14.2186 8.46572 15.0456 7.99605C15.8727 7.52638 16.4262 6.78116 16.6476 5.95454C16.869 5.12792 16.7648 4.21363 16.2764 3.41832C15.788 2.62301 15.0131 2.09071 14.1535 1.87779C13.2939 1.66488 12.3431 1.76507 11.5161 2.23474C10.689 2.70442 10.1355 3.44963 9.91411 4.27625C9.69269 5.10287 9.79689 6.01717 10.2853 6.81248C10.7737 7.60779 11.5486 8.14008 12.4082 8.353ZM29.4048 7.99605C30.0365 9.06064 31.4496 9.43011 32.5567 8.82267C33.6637 8.21523 34.048 6.85631 33.4163 5.79172C32.7846 4.72713 31.3715 4.35766 30.2644 4.9651C29.1574 5.57254 28.7732 6.93146 29.4048 7.99605ZM44.3696 12.9683C44.1417 13.7949 44.2394 14.7092 44.7213 15.5045C45.6851 17.1014 47.8145 17.6525 49.4751 16.7257C50.3087 16.2623 50.8622 15.5171 51.0966 14.6904C51.5916 12.9057 50.4845 11.0708 48.6351 10.5949C46.7791 10.119 44.8711 11.1836 44.3762 12.962L44.3696 12.9683ZM45.2488 28.0103C44.1938 28.6866 43.9008 30.0769 44.6106 31.0914C45.3139 32.1059 46.7596 32.3877 47.8145 31.7051C48.8695 31.0287 49.1626 29.6385 48.4527 28.624C47.7494 27.6095 46.3037 27.3277 45.2488 28.0103ZM7.62836 27.2275C9.06102 26.0064 9.19777 23.8835 7.92791 22.4995C6.65805 21.1218 4.45045 20.9903 3.01128 22.2114C1.57861 23.4326 1.44186 25.5555 2.71823 26.9395C3.98809 28.3234 6.19569 28.4487 7.63487 27.2275H7.62836ZM34.1131 50.9929C35.2136 51.4 36.477 51.4 37.6361 50.899C38.7953 50.398 39.6353 49.4962 40.0521 48.4379C40.9573 46.1522 39.7721 43.5972 37.3887 42.7267C35.0117 41.8562 32.3548 42.996 31.4496 45.288C30.5444 47.5737 31.7296 50.1287 34.1131 50.9992V50.9929ZM31.2933 20.84C29.9388 19.5374 28.0698 18.7359 26.0055 18.7359C23.9412 18.7359 22.0657 19.5437 20.7177 20.84C19.3697 22.1363 18.5231 23.9398 18.5231 25.925C18.5231 27.9101 19.3632 29.7137 20.7112 31.01C22.0657 32.3125 23.9347 33.1203 25.999 33.1203C28.0633 33.1203 29.9388 32.3125 31.2868 31.01C32.6413 29.7074 33.4749 27.9101 33.4749 25.925C33.4749 23.9398 32.6348 22.1363 31.2868 20.84H31.2933ZM10.1225 45.1502C10.3504 46.3526 11.5552 47.1604 12.8055 46.9412C14.0558 46.722 14.8959 45.5635 14.6679 44.3611C14.44 43.1588 13.2353 42.351 11.985 42.5701C10.7346 42.7893 9.89457 43.9478 10.1225 45.1502Z" fill="#00325B"/>
</g>
</g>
<defs>
<clipPath id="clip0_291_404">
<rect width="53" height="53" fill="white"/>
</clipPath>
<clipPath id="clip1_291_404">
<rect width="53.0541" height="53.0541" fill="white" transform="translate(0.000244141)"/>
</clipPath>
</defs>
</svg>
