<svg width="53" height="53" viewBox="0 0 53 53" fill="none" xmlns="http://www.w3.org/2000/svg">
<path fill-rule="evenodd" clip-rule="evenodd" d="M16.8626 2.92671C16.8626 3.61847 17.4183 4.17425 18.1101 4.17425C18.8019 4.17425 19.3577 3.61847 19.3577 2.92671C19.3577 2.23494 18.8019 1.67916 18.1101 1.67916C17.4183 1.67916 16.8626 2.23494 16.8626 2.92671ZM16.2122 15.0297H20.416V13.0253L17.4893 9.81482L17.2705 9.5724V5.72925C16.0407 5.35676 15.1834 4.22747 15.1834 2.92671C15.1834 1.3185 16.496 0 18.1101 0C19.7242 0 21.0368 1.31258 21.0368 2.92671C21.0368 4.22155 20.1795 5.36267 18.9497 5.72925V8.92793L21.8764 12.1384L22.0952 12.3809V15.0297H25.6604V9.04619C25.016 8.73282 24.5725 8.07653 24.5725 7.3079C24.5725 6.24364 25.4357 5.38041 26.5 5.38041C27.5643 5.38041 28.4275 6.24364 28.4275 7.3079C28.4275 8.07062 27.9841 8.73282 27.3396 9.04619V15.0297H30.9048V12.3809L31.1236 12.1384L34.0503 8.92793V5.72925C32.8205 5.36267 31.9632 4.22155 31.9632 2.92671C31.9632 1.31258 33.2758 0 34.8899 0C36.504 0 37.8166 1.31258 37.8166 2.92671C37.8166 4.22155 36.9652 5.36267 35.7295 5.72925V9.5724L35.5107 9.81482L32.584 13.0253V15.0297H36.7878L41.0448 10.7726C40.8083 10.0986 40.9621 9.31816 41.5001 8.77421C42.251 8.02332 43.4749 8.02332 44.2258 8.77421C44.9767 9.5251 44.9767 10.749 44.2258 11.4999C43.6878 12.0379 42.9014 12.1917 42.2274 11.9552L37.9703 16.2122V20.416H39.9747L43.1852 17.4893L43.4276 17.2705H47.2708C47.6373 16.0407 48.7785 15.1834 50.0733 15.1834C51.6874 15.1834 53 16.496 53 18.1101C53 19.7242 51.6874 21.0368 50.0733 21.0368C48.7785 21.0368 47.6373 20.1795 47.2708 18.9497H44.0721L40.8616 21.8764L40.6191 22.0952H37.9703V25.6604H43.9538C44.2672 25.016 44.9235 24.5725 45.6921 24.5725C46.7564 24.5725 47.6196 25.4357 47.6196 26.5C47.6196 27.5643 46.7564 28.4275 45.6921 28.4275C44.9294 28.4275 44.2672 27.9841 43.9538 27.3396H37.9703V30.9048H40.6191L40.8616 31.1236L44.0721 34.0503H47.2708C47.6373 32.8205 48.7785 31.9632 50.0733 31.9632C51.6874 31.9632 53 33.2758 53 34.8899C53 36.504 51.6874 37.8166 50.0733 37.8166C48.7785 37.8166 47.6373 36.9593 47.2708 35.7295H43.4276L43.1852 35.5107L39.9747 32.584H37.9703V36.7878L42.2274 41.0448C42.9014 40.8083 43.6878 40.9621 44.2258 41.5001C44.9767 42.251 44.9767 43.4749 44.2258 44.2258C43.4749 44.9767 42.251 44.9767 41.5001 44.2258C40.9621 43.6878 40.8083 42.9014 41.0448 42.2274L36.7878 37.9703H32.584V39.9747L35.5107 43.1852L35.7295 43.4276V47.2708C36.9593 47.6373 37.8166 48.7785 37.8166 50.0733C37.8166 51.6874 36.504 53 34.8899 53C33.2758 53 31.9632 51.6874 31.9632 50.0733C31.9632 48.7785 32.8205 47.6373 34.0503 47.2708V44.0721L31.1236 40.8616L30.9048 40.6191V37.9703H27.3396V43.9538C27.9841 44.2672 28.4275 44.9235 28.4275 45.6921C28.4275 46.7564 27.5643 47.6196 26.5 47.6196C25.4357 47.6196 24.5725 46.7564 24.5725 45.6921C24.5725 44.9294 25.016 44.2672 25.6604 43.9538V37.9703H22.0952V40.6191L21.8764 40.8616L18.9497 44.0721V47.2708C20.1795 47.6373 21.0368 48.7785 21.0368 50.0733C21.0368 51.6815 19.7242 53 18.1101 53C16.496 53 15.1834 51.6874 15.1834 50.0733C15.1834 48.7785 16.0466 47.6373 17.2705 47.2708V43.4276L17.4893 43.1852L20.416 39.9747V37.9703H16.2122L11.9552 42.2274C12.1917 42.9014 12.0379 43.6878 11.4999 44.2258C10.749 44.9767 9.5251 44.9767 8.77421 44.2258C8.02332 43.4749 8.02332 42.251 8.77421 41.5001C9.31225 40.9621 10.0986 40.8083 10.7726 41.0448L15.0297 36.7878V32.584H13.0253L9.81482 35.5107L9.5724 35.7295H5.72925C5.36267 36.9652 4.22155 37.8166 2.92671 37.8166C1.31258 37.8166 0 36.504 0 34.8899C0 33.2758 1.31258 31.9632 2.92671 31.9632C4.22155 31.9632 5.36267 32.8205 5.72925 34.0503H8.92793L12.1384 31.1236L12.3809 30.9048H15.0297V27.3396H9.04619C8.73282 27.9841 8.07653 28.4275 7.3079 28.4275C6.24364 28.4275 5.38041 27.5643 5.38041 26.5C5.38041 25.4357 6.24364 24.5725 7.3079 24.5725C8.07062 24.5725 8.73282 25.016 9.04619 25.6604H15.0297V22.0952H12.3809L12.1384 21.8764L8.92793 18.9497H5.72925C5.36267 20.1795 4.22155 21.0368 2.92671 21.0368C1.3185 21.0368 0 19.7242 0 18.1101C0 16.496 1.31258 15.1834 2.92671 15.1834C4.22747 15.1834 5.35676 16.0407 5.72925 17.2705H9.5724L9.81482 17.4893L13.0253 20.416H15.0297V16.2122L10.7726 11.9552C10.0986 12.1917 9.31225 12.0379 8.77421 11.4999C8.02332 10.749 8.02332 9.5251 8.77421 8.77421C9.5251 8.02332 10.749 8.02332 11.4999 8.77421C12.0379 9.31225 12.1917 10.0986 11.9552 10.7726L16.2122 15.0297ZM23.189 22.3494H22.3494V30.6447H30.6447V22.3494H23.189ZM20.7648 19.5055C20.7648 18.8137 20.2031 18.2461 19.5055 18.2461C18.8078 18.2461 18.2461 18.8078 18.2461 19.5055C18.2461 20.2031 18.8078 20.7648 19.5055 20.7648C20.2031 20.7648 20.7648 20.2031 20.7648 19.5055ZM34.7421 19.5055C34.7421 18.8137 34.1804 18.2461 33.4827 18.2461C32.785 18.2461 32.2233 18.8078 32.2233 19.5055C32.2233 20.2031 32.785 20.7648 33.4827 20.7648C34.1804 20.7648 34.7421 20.2031 34.7421 19.5055ZM34.7421 33.4827C34.7421 32.7909 34.1804 32.2233 33.4827 32.2233C32.785 32.2233 32.2233 32.785 32.2233 33.4827C32.2233 34.1804 32.785 34.7421 33.4827 34.7421C34.1804 34.7421 34.7421 34.1804 34.7421 33.4827ZM20.7648 33.4827C20.7648 32.7909 20.2031 32.2233 19.5055 32.2233C18.8078 32.2233 18.2461 32.785 18.2461 33.4827C18.2461 34.1804 18.8078 34.7421 19.5055 34.7421C20.2031 34.7421 20.7648 34.1804 20.7648 33.4827ZM28.9655 24.0226H24.0226V28.9655H28.9655V24.0226ZM36.2853 16.7029H16.7029V36.2912H36.2912V16.7029H36.2853ZM50.0615 16.8626C49.3697 16.8626 48.8139 17.4183 48.8139 18.1101C48.8139 18.8019 49.3697 19.3577 50.0615 19.3577C50.7532 19.3577 51.309 18.8019 51.309 18.1101C51.309 17.4183 50.7532 16.8626 50.0615 16.8626ZM50.0615 36.1315C50.7532 36.1315 51.309 35.5698 51.309 34.884C51.309 34.1981 50.7532 33.6364 50.0615 33.6364C49.3697 33.6364 48.8139 34.1922 48.8139 34.884C48.8139 35.5757 49.3697 36.1315 50.0615 36.1315ZM2.92671 16.8626C2.23494 16.8626 1.67916 17.4183 1.67916 18.1101C1.67916 18.8019 2.23494 19.3577 2.92671 19.3577C3.61847 19.3577 4.17425 18.8019 4.17425 18.1101C4.17425 17.4183 3.61847 16.8626 2.92671 16.8626ZM2.92671 36.1315C3.61847 36.1315 4.17425 35.5698 4.17425 34.884C4.17425 34.1981 3.61847 33.6364 2.92671 33.6364C2.23494 33.6364 1.67916 34.1922 1.67916 34.884C1.67916 35.5757 2.23494 36.1315 2.92671 36.1315ZM36.1315 50.0674C36.1315 49.3756 35.5757 48.8198 34.884 48.8198C34.1922 48.8198 33.6364 49.3756 33.6364 50.0674C33.6364 50.7592 34.1922 51.3149 34.884 51.3149C35.5757 51.3149 36.1315 50.7532 36.1315 50.0674ZM16.8626 50.0674C16.8626 50.7592 17.4183 51.3149 18.1101 51.3149C18.8019 51.3149 19.3577 50.7592 19.3577 50.0674C19.3577 49.3756 18.8019 48.8198 18.1101 48.8198C17.4183 48.8198 16.8626 49.3756 16.8626 50.0674ZM36.1315 2.92671C36.1315 2.23494 35.5757 1.67916 34.884 1.67916C34.1922 1.67916 33.6364 2.23494 33.6364 2.92671C33.6364 3.61847 34.1922 4.17425 34.884 4.17425C35.5757 4.17425 36.1315 3.61256 36.1315 2.92671Z" fill="#00325A"/>
</svg>
