<svg width="53" height="53" viewBox="0 0 53 53" fill="none" xmlns="http://www.w3.org/2000/svg">
<path fill-rule="evenodd" clip-rule="evenodd" d="M45.0363 15.437C44.2226 15.437 43.5597 16.1028 43.5597 16.9336C43.5597 17.7644 44.2226 18.4303 45.0363 18.4303C45.8499 18.4303 46.5128 17.7583 46.5128 16.9336C46.5128 16.1089 45.8559 15.437 45.0363 15.437ZM15.0162 31.7963C15.5406 33.6717 15.5767 35.5716 15.1971 37.3492C15.1127 37.7402 15.0102 38.1251 14.8897 38.5099C15.1247 38.3877 15.3658 38.2656 15.6129 38.1617C17.3065 37.4164 19.2049 37.0805 21.1757 37.2576L21.0251 38.9742C19.3496 38.8215 17.7344 39.1086 16.2939 39.7378C14.9801 40.3181 13.8048 41.1856 12.8586 42.2729C12.8225 42.5845 12.8044 42.896 12.8044 43.2076C12.8044 45.4251 13.6903 47.4349 15.1247 48.8888C16.5591 50.3427 18.542 51.2407 20.7297 51.2407C21.7483 51.2407 22.7186 51.0452 23.6106 50.697C24.4182 50.3793 25.1595 49.9273 25.8165 49.3714V3.59809C25.1595 3.04219 24.4182 2.59013 23.6106 2.27248C22.7247 1.92427 21.7543 1.72879 20.7297 1.72879C18.542 1.72879 16.5591 2.62679 15.1247 4.08068C13.6903 5.53458 12.8044 7.54437 12.8044 9.76187C12.8044 10.0795 12.8225 10.385 12.8586 10.6965C13.8048 11.7839 14.9741 12.6513 16.2939 13.2317C17.7344 13.867 19.3496 14.1541 21.0251 13.9953L21.1757 15.7118C19.211 15.8951 17.3125 15.553 15.6129 14.8077C15.3658 14.6978 15.1247 14.5817 14.8897 14.4595C15.0102 14.8383 15.1127 15.2231 15.1971 15.6202C15.5707 17.404 15.5406 19.2977 15.0162 21.1731L13.3769 20.7089C13.8229 19.1145 13.8531 17.4956 13.5336 15.9806C13.2383 14.5817 12.6477 13.2683 11.8039 12.1321C10.3153 12.6574 9.0255 13.6165 8.09133 14.8627C7.08484 16.2067 6.48215 17.8927 6.48215 19.7192C6.48215 20.9227 6.74131 22.0589 7.20538 23.073C7.68753 24.1359 8.39268 25.0705 9.25452 25.8219L10.0079 26.4756L9.25452 27.1292C8.38665 27.8806 7.68753 28.8152 7.20538 29.8782C6.74131 30.8983 6.48215 32.0346 6.48215 33.2319C6.48215 35.0584 7.07881 36.7445 8.09133 38.0884C9.0255 39.3346 10.3153 40.2998 11.8039 40.819C12.6416 39.6828 13.2383 38.3694 13.5336 36.9705C13.8531 35.4555 13.8229 33.8367 13.3769 32.2423L15.0162 31.778V31.7963ZM7.46453 26.4878C6.72322 25.7059 6.10848 24.8018 5.65646 23.806C5.08993 22.5598 4.77653 21.1792 4.77653 19.7253C4.77653 17.5139 5.50579 15.4675 6.73528 13.8303C7.85026 12.3459 9.36904 11.1974 11.1289 10.5499C11.1108 10.2872 11.0988 10.0245 11.0988 9.76187C11.0988 7.06789 12.1776 4.62437 13.9193 2.85892C15.6611 1.09348 18.0659 0 20.7237 0C21.9532 0 23.1285 0.238243 24.2193 0.66586C25.3464 1.1118 26.3709 1.76544 27.2448 2.57792L27.5221 2.83449V14.2091H30.6802L33.1452 11.4662V5.86445C32.4882 5.54069 32.0362 4.86261 32.0362 4.06846C32.0362 2.96888 32.9161 2.07699 34.001 2.07699C35.0858 2.07699 35.9658 2.96888 35.9658 4.06846C35.9658 4.8565 35.5137 5.54069 34.8568 5.86445V12.1321L34.6338 12.3825L31.6867 15.6569L31.4335 15.944H27.5281V19.9208H32.9161L36.8336 16.2983L37.0807 16.0723H41.9806C42.3603 14.6795 43.6199 13.7143 45.0483 13.7143C46.8021 13.7143 48.2305 15.1621 48.2305 16.9397C48.2305 18.7174 46.8082 20.1652 45.0483 20.1652C43.6199 20.1652 42.3603 19.1939 41.9806 17.8072H37.7377L33.8202 21.4297L33.5731 21.6557H27.5281V25.6325H38.3102C38.6297 24.9667 39.2986 24.5085 40.0821 24.5085C41.167 24.5085 42.0469 25.4004 42.0469 26.5C42.0469 27.5996 41.167 28.4915 40.0821 28.4915C39.3047 28.4915 38.6297 28.0333 38.3102 27.3674H27.5281V31.3443H33.5731L33.8202 31.5703L37.7377 35.1928H41.9806C42.3603 33.8 43.6199 32.8348 45.0483 32.8348C46.8021 32.8348 48.2305 34.2826 48.2305 36.0603C48.2305 37.8379 46.8021 39.2857 45.0483 39.2857C43.6199 39.2857 42.3603 38.3144 41.9806 36.9277H37.0807L36.8336 36.7017L32.9161 33.0792H27.5281V37.056H31.4335L31.6867 37.3431L34.6338 40.6174L34.8568 40.8679V47.1355C35.5137 47.4593 35.9658 48.1374 35.9658 48.9315C35.9658 50.0311 35.0858 50.923 34.001 50.923C32.9161 50.923 32.0362 50.0311 32.0362 48.9315C32.0362 48.1435 32.4882 47.4593 33.1452 47.1355V41.5338L30.6802 38.7909H27.5221V50.1655L27.2448 50.4221C26.3709 51.2346 25.3524 51.8882 24.2193 52.3341C23.1345 52.7618 21.9532 53 20.7237 53C18.0659 53 15.6551 51.9065 13.9133 50.1411C12.1715 48.3756 11.0927 45.9321 11.0927 43.2381C11.0927 42.9754 11.1048 42.7128 11.1229 42.4501C9.36301 41.8026 7.84423 40.6541 6.72925 39.1697C5.49976 37.5264 4.77051 35.4861 4.77051 33.2747C4.77051 31.8208 5.08391 30.4402 5.65044 29.194C6.10245 28.1982 6.7172 27.2941 7.45851 26.5122L7.46453 26.4878ZM45.0423 37.5386C45.8619 37.5386 46.5189 36.8727 46.5189 36.042C46.5189 35.2112 45.8619 34.5453 45.0423 34.5453C44.2226 34.5453 43.5657 35.2173 43.5657 36.042C43.5657 36.8666 44.2286 37.5386 45.0423 37.5386Z" fill="#00325A"/>
</svg>
